# xmcd CD database file
#
# Track frame offsets:
#	150
#	13392
#	35392
#	55417
#	78285
#	93402
#	117030
#	131477
#	152342
#
# Disc length: 2270 seconds
#
# Revision: 0
# Processed by: cddbd v1.5.2PL0 Copyright (c) Steve Scherf et al.
# Submitted via: CDex 1.70beta2
#
DISCID=6608dc09
DTITLE=ルイ・アームストロング - サッチ・プレイズ・ファッツ
DYEAR=1900
DGENRE=Jazz
TTITLE0=Honeysuckle Rose
TTITLE1=Blue Turning Grey Over You
TTITLE2=I'm Crazy Bout My Baby
TTITLE3=Squeeze Me
TTITLE4=Keepin' Out Of Mischief Now
TTITLE5=All That Meat And No Potatoes
TTITLE6=I've Got A Feeling I'm Falling
TTITLE7=Black And Blue
TTITLE8=Ain't Misbehavin
EXTD=
EXTT0=
EXTT1=
EXTT2=
EXTT3=
EXTT4=
EXTT5=
EXTT6=
EXTT7=
EXTT8=
PLAYORDER=
